{
 "asset": {
  "version": "2.0",
  "generator": "escape-velocity orbit/sky asset generator"
 },
 "scene": 0,
 "scenes": [
  {
   "nodes": [
    0
   ]
  }
 ],
 "nodes": [
  {
   "mesh": 0,
   "name": "OrbitRings"
  }
 ],
 "meshes": [
  {
   "name": "OrbitRings",
   "primitives": [
    {
     "attributes": {
      "POSITION": 0,
      "NORMAL": 1,
      "TEXCOORD_0": 2
     },
     "indices": 3,
     "material": 0
    }
   ]
  }
 ],
 "materials": [
  {
   "name": "Flat",
   "doubleSided": true,
   "emissiveFactor": [
    1.0,
    1.0,
    1.0
   ],
   "pbrMetallicRoughness": {
    "baseColorFactor": [
     0.0,
     0.0,
     0.0,
     1
    ],
    "metallicFactor": 0,
    "roughnessFactor": 1.0
   }
  }
 ],
 "buffers": [
  {
   "byteLength": 99408,
   "uri": "data:application/octet-stream;base64,"
  }
 ],
 "bufferViews": [
  {
   "buffer": 0,
   "byteOffset": 0,
   "byteLength": 31392,
   "target": 34962
  },
  {
   "buffer": 0,
   "byteOffset": 31392,
   "byteLength": 31392,
   "target": 34962
  },
  {
   "buffer": 0,
   "byteOffset": 62784,
   "byteLength": 20928,
   "target": 34962
  },
  {
   "buffer": 0,
   "byteOffset": 83712,
   "byteLength": 15696,
   "target": 34963
  }
 ],
 "accessors": [
  {
   "bufferView": 0,
   "componentType": 5126,
   "count": 2616,
   "type": "VEC3",
   "min": [
    -55.609795,
    -0.5,
    -55.608541
   ],
   "max": [
    55.61,
    0.5,
    55.607242
   ]
  },
  {
   "bufferView": 1,
   "componentType": 5126,
   "count": 2616,
   "type": "VEC3"
  },
  {
   "bufferView": 2,
   "componentType": 5126,
   "count": 2616,
   "type": "VEC2"
  },
  {
   "bufferView": 3,
   "componentType": 5123,
   "count": 7848,
   "type": "SCALAR"
  }
 ]
}