{
  "asset": {"version": "2.0", "generator": "escape-velocity offline generator"},
  "scene": 0,
  "scenes": [{"nodes": [0]}],
  "nodes": [{"mesh": 0, "name": "Probe"}],
  "meshes": [{"name": "Probe", "primitives": [{"attributes": {"POSITION": 0, "NORMAL": 1}, "indices": 2, "material": 0}]}],
  "materials": [{"name": "Flat", "doubleSided": true, "pbrMetallicRoughness": {"baseColorFactor": [0.95, 0.95, 0.95, 1], "metallicFactor": 0, "roughnessFactor": 0.7}}],
  "buffers": [{"byteLength": 312, "uri": "data:application/octet-stream;base64,"}],
  "bufferViews": [
    {"buffer": 0, "byteOffset": 0, "byteLength": 144, "target": 34962},
    {"buffer": 0, "byteOffset": 144, "byteLength": 144, "target": 34962},
    {"buffer": 0, "byteOffset": 288, "byteLength": 24, "target": 34963}
  ],
  "accessors": [
    {"bufferView": 0, "componentType": 5126, "count": 12, "type": "VEC3", "min": [-0.5, -0.5, 0], "max": [1, 0.5, 0.7]},
    {"bufferView": 1, "componentType": 5126, "count": 12, "type": "VEC3"},
    {"bufferView": 2, "componentType": 5123, "count": 12, "type": "SCALAR"}
  ]
}
