{
  "asset": {"version": "2.0", "generator": "escape-velocity offline generator"},
  "scene": 0,
  "scenes": [{"nodes": [0]}],
  "nodes": [{"mesh": 0, "name": "Ring"}],
  "meshes": [{"name": "Ring", "primitives": [{"attributes": {"POSITION": 0, "NORMAL": 1}, "indices": 2, "material": 0}]}],
  "materials": [{"name": "Flat", "doubleSided": true, "pbrMetallicRoughness": {"baseColorFactor": [0.78, 0.72, 0.58, 1], "metallicFactor": 0, "roughnessFactor": 0.9}}],
  "buffers": [{"byteLength": 480, "uri": "data:application/octet-stream;base64,"}],
  "bufferViews": [
    {"buffer": 0, "byteOffset": 0, "byteLength": 192, "target": 34962},
    {"buffer": 0, "byteOffset": 192, "byteLength": 192, "target": 34962},
    {"buffer": 0, "byteOffset": 384, "byteLength": 96, "target": 34963}
  ],
  "accessors": [
    {"bufferView": 0, "componentType": 5126, "count": 16, "type": "VEC3", "min": [-2, 0, -2], "max": [2, 0, 2]},
    {"bufferView": 1, "componentType": 5126, "count": 16, "type": "VEC3"},
    {"bufferView": 2, "componentType": 5123, "count": 48, "type": "SCALAR"}
  ]
}
