{
  "asset": {"version": "2.0", "generator": "escape-velocity offline generator"},
  "scene": 0,
  "scenes": [{"nodes": [0]}],
  "nodes": [{"mesh": 0, "name": "Sphere"}],
  "meshes": [{"name": "Sphere", "primitives": [{"attributes": {"POSITION": 0, "NORMAL": 1}, "indices": 2, "material": 0}]}],
  "materials": [{"name": "Flat", "doubleSided": true, "pbrMetallicRoughness": {"baseColorFactor": [0.55, 0.62, 0.78, 1], "metallicFactor": 0, "roughnessFactor": 0.85}}],
  "buffers": [{"byteLength": 2208, "uri": "data:application/octet-stream;base64,"}],
  "bufferViews": [
    {"buffer": 0, "byteOffset": 0, "byteLength": 744, "target": 34962},
    {"buffer": 0, "byteOffset": 744, "byteLength": 744, "target": 34962},
    {"buffer": 0, "byteOffset": 1488, "byteLength": 720, "target": 34963}
  ],
  "accessors": [
    {"bufferView": 0, "componentType": 5126, "count": 61, "type": "VEC3", "min": [-1, -1, -1], "max": [1, 1, 1]},
    {"bufferView": 1, "componentType": 5126, "count": 61, "type": "VEC3"},
    {"bufferView": 2, "componentType": 5123, "count": 360, "type": "SCALAR"}
  ]
}
