{
 "asset": {
  "version": "2.0",
  "generator": "escape-velocity star asset generator"
 },
 "scene": 0,
 "scenes": [
  {
   "nodes": [
    0
   ]
  }
 ],
 "nodes": [
  {
   "mesh": 0,
   "name": "StarShell"
  }
 ],
 "meshes": [
  {
   "name": "StarShell",
   "primitives": [
    {
     "attributes": {
      "POSITION": 0,
      "NORMAL": 1,
      "TEXCOORD_0": 2
     },
     "indices": 3,
     "material": 0
    }
   ]
  }
 ],
 "materials": [
  {
   "name": "Flat",
   "doubleSided": true,
   "pbrMetallicRoughness": {
    "baseColorFactor": [
     0.86,
     0.89,
     1.0,
     1
    ],
    "metallicFactor": 0,
    "roughnessFactor": 1.0
   }
  }
 ],
 "buffers": [
  {
   "byteLength": 126000,
   "uri": "data:application/octet-stream;base64,"
  }
 ],
 "bufferViews": [
  {
   "buffer": 0,
   "byteOffset": 0,
   "byteLength": 43200,
   "target": 34962
  },
  {
   "buffer": 0,
   "byteOffset": 43200,
   "byteLength": 43200,
   "target": 34962
  },
  {
   "buffer": 0,
   "byteOffset": 86400,
   "byteLength": 28800,
   "target": 34962
  },
  {
   "buffer": 0,
   "byteOffset": 115200,
   "byteLength": 10800,
   "target": 34963
  }
 ],
 "accessors": [
  {
   "bufferView": 0,
   "componentType": 5126,
   "count": 3600,
   "type": "VEC3",
   "min": [
    -371.742658,
    -364.062999,
    -362.992477
   ],
   "max": [
    375.980975,
    367.352011,
    359.081627
   ]
  },
  {
   "bufferView": 1,
   "componentType": 5126,
   "count": 3600,
   "type": "VEC3"
  },
  {
   "bufferView": 2,
   "componentType": 5126,
   "count": 3600,
   "type": "VEC2"
  },
  {
   "bufferView": 3,
   "componentType": 5123,
   "count": 5400,
   "type": "SCALAR"
  }
 ]
}