{
 "asset": {
  "version": "2.0",
  "generator": "escape-velocity star asset generator"
 },
 "scene": 0,
 "scenes": [
  {
   "nodes": [
    0
   ]
  }
 ],
 "nodes": [
  {
   "mesh": 0,
   "name": "StarShell"
  }
 ],
 "meshes": [
  {
   "name": "StarShell",
   "primitives": [
    {
     "attributes": {
      "POSITION": 0,
      "NORMAL": 1,
      "TEXCOORD_0": 2
     },
     "indices": 3,
     "material": 0
    }
   ]
  }
 ],
 "materials": [
  {
   "name": "Flat",
   "doubleSided": true,
   "pbrMetallicRoughness": {
    "baseColorFactor": [
     1.0,
     0.95,
     0.82,
     1
    ],
    "metallicFactor": 0,
    "roughnessFactor": 1.0
   }
  }
 ],
 "buffers": [
  {
   "byteLength": 9800,
   "uri": "data:application/octet-stream;base64,"
  }
 ],
 "bufferViews": [
  {
   "buffer": 0,
   "byteOffset": 0,
   "byteLength": 3360,
   "target": 34962
  },
  {
   "buffer": 0,
   "byteOffset": 3360,
   "byteLength": 3360,
   "target": 34962
  },
  {
   "buffer": 0,
   "byteOffset": 6720,
   "byteLength": 2240,
   "target": 34962
  },
  {
   "buffer": 0,
   "byteOffset": 8960,
   "byteLength": 840,
   "target": 34963
  }
 ],
 "accessors": [
  {
   "bufferView": 0,
   "componentType": 5126,
   "count": 280,
   "type": "VEC3",
   "min": [
    -267.138344,
    -280.57692,
    -301.976939
   ],
   "max": [
    312.957205,
    296.86111,
    260.050422
   ]
  },
  {
   "bufferView": 1,
   "componentType": 5126,
   "count": 280,
   "type": "VEC3"
  },
  {
   "bufferView": 2,
   "componentType": 5126,
   "count": 280,
   "type": "VEC2"
  },
  {
   "bufferView": 3,
   "componentType": 5123,
   "count": 420,
   "type": "SCALAR"
  }
 ]
}