{
 "asset": {
  "version": "2.0",
  "generator": "escape-velocity orbit/sky asset generator"
 },
 "scene": 0,
 "scenes": [
  {
   "nodes": [
    0
   ]
  }
 ],
 "nodes": [
  {
   "mesh": 0,
   "name": "StarSphere"
  }
 ],
 "meshes": [
  {
   "name": "StarSphere",
   "primitives": [
    {
     "attributes": {
      "POSITION": 0,
      "NORMAL": 1,
      "TEXCOORD_0": 2
     },
     "indices": 3,
     "material": 0
    }
   ]
  }
 ],
 "materials": [
  {
   "name": "Flat",
   "doubleSided": true,
   "emissiveFactor": [
    1.0,
    1.0,
    1.0
   ],
   "pbrMetallicRoughness": {
    "baseColorFactor": [
     0.0,
     0.0,
     0.0,
     1
    ],
    "metallicFactor": 0,
    "roughnessFactor": 1.0
   }
  }
 ],
 "buffers": [
  {
   "byteLength": 53024,
   "uri": "data:application/octet-stream;base64,"
  }
 ],
 "bufferViews": [
  {
   "buffer": 0,
   "byteOffset": 0,
   "byteLength": 14700,
   "target": 34962
  },
  {
   "buffer": 0,
   "byteOffset": 14700,
   "byteLength": 14700,
   "target": 34962
  },
  {
   "buffer": 0,
   "byteOffset": 29400,
   "byteLength": 9800,
   "target": 34962
  },
  {
   "buffer": 0,
   "byteOffset": 39200,
   "byteLength": 13824,
   "target": 34963
  }
 ],
 "accessors": [
  {
   "bufferView": 0,
   "componentType": 5126,
   "count": 1225,
   "type": "VEC3",
   "min": [
    -1.0,
    -1.0,
    -1.0
   ],
   "max": [
    1.0,
    1.0,
    1.0
   ]
  },
  {
   "bufferView": 1,
   "componentType": 5126,
   "count": 1225,
   "type": "VEC3"
  },
  {
   "bufferView": 2,
   "componentType": 5126,
   "count": 1225,
   "type": "VEC2"
  },
  {
   "bufferView": 3,
   "componentType": 5123,
   "count": 6912,
   "type": "SCALAR"
  }
 ]
}